g Cylinder_1
v -1.118876 -0.5155922 -0.4264543
v -1.118876 -0.5422845 -0.3802218
v 1.118876 -0.5422845 -0.3802218
v 1.118876 -0.5155922 -0.4264543
v -1.118876 -0.4622076 -0.4264543
v -1.118876 -0.5155922 -0.4264543
v 1.118876 -0.5155922 -0.4264543
v 1.118876 -0.4622076 -0.4264543
v -1.118876 -0.4355152 -0.3802218
v -1.118876 -0.4622076 -0.4264543
v 1.118876 -0.4622076 -0.4264543
v 1.118876 -0.4355152 -0.3802218
v -1.118876 -0.4622076 -0.3339894
v -1.118876 -0.4355152 -0.3802218
v 1.118876 -0.4355152 -0.3802218
v 1.118876 -0.4622076 -0.3339894
v -1.118876 -0.5155922 -0.3339894
v -1.118876 -0.4622076 -0.3339894
v 1.118876 -0.4622076 -0.3339894
v 1.118876 -0.5155922 -0.3339894
v -1.118876 -0.5422845 -0.3802218
v -1.118876 -0.5155922 -0.3339894
v 1.118876 -0.5155922 -0.3339894
v 1.118876 -0.5422845 -0.3802218
v 1.213655 -1.986981 -0.49
v -1.213655 -1.986981 -0.49
v -1.213655 1.679981 -0.49
v 1.213655 1.679981 -0.49
v -1.118876 -0.5155922 -0.4264543
v -1.118876 -0.4888999 -0.3802218
v -1.118876 -0.5422845 -0.3802218
v -1.118876 -0.4622076 -0.4264543
v -1.118876 -0.5155922 -0.3339894
v -1.118876 -0.4355152 -0.3802218
v -1.118876 -0.4622076 -0.3339894
v 1.118876 -0.5155922 -0.4264543
v 1.118876 -0.5422845 -0.3802218
v 1.118876 -0.4888999 -0.3802218
v 1.118876 -0.4622076 -0.4264543
v 1.118876 -0.5155922 -0.3339894
v 1.118876 -0.4355152 -0.3802218
v 1.118876 -0.4622076 -0.3339894
v 1.307655 -2.080981 -1
v 1.307655 -2.080981 1
v 1.307655 1.773981 1
v 1.307655 1.773981 -1
v -1.307655 -2.080981 -1
v 1.307655 -2.080981 -1
v 1.307655 1.773981 -1
v -1.307655 1.773981 -1
v -1.307655 -2.080981 1
v -1.307655 -2.080981 -1
v -1.307655 1.773981 -1
v -1.307655 1.773981 1
v 1.429656 2.080981 1.122
v -1.429656 2.080981 1.122
v -1.429656 2.080981 -1.122
v 1.429656 2.080981 -1.122
v 1.307655 -2.080981 -1
v -1.307655 -2.080981 -1
v -1.307655 -2.080981 1
v 1.307655 -2.080981 1
v 1.429656 1.773981 1.122
v -1.429656 1.773981 1.122
v -1.429656 2.080981 1.122
v 1.429656 2.080981 1.122
v 1.429656 1.773981 -1.122
v 1.429656 1.773981 1.122
v 1.429656 2.080981 1.122
v 1.429656 2.080981 -1.122
v -1.429656 1.773981 -1.122
v 1.429656 1.773981 -1.122
v 1.429656 2.080981 -1.122
v -1.429656 2.080981 -1.122
v -1.429656 1.773981 1.122
v -1.429656 1.773981 -1.122
v -1.429656 2.080981 -1.122
v -1.429656 2.080981 1.122
v 1.213655 -1.986981 1
v -1.213655 -1.986981 1
v -1.213655 -1.986981 -0.094
v 1.213655 -1.986981 -0.094
v -1.213655 -1.986981 -0.49
v 1.213655 -1.986981 -0.49
v 1.213655 1.679981 1
v 1.213655 -1.986981 1
v 1.213655 -1.986981 -0.094
v 1.213655 1.679981 -0.094
v 1.213655 -1.986981 -0.49
v 1.213655 1.679981 -0.49
v -1.213655 1.679981 1
v 1.213655 1.679981 1
v 1.213655 1.679981 -0.094
v -1.213655 1.679981 -0.094
v 1.213655 1.679981 -0.49
v -1.213655 1.679981 -0.49
v -1.213655 -1.986981 1
v -1.213655 1.679981 1
v -1.213655 1.679981 -0.094
v -1.213655 -1.986981 -0.094
v -1.213655 1.679981 -0.49
v -1.213655 -1.986981 -0.49
v 1.307655 1.773981 1
v -1.307655 1.773981 1
v -1.429656 1.773981 1.122
v 1.429656 1.773981 1.122
v -1.429656 1.773981 -1.122
v 1.307655 1.773981 -1
v -1.307655 1.773981 -1
v 1.429656 1.773981 -1.122
v 1.307655 -2.080981 1
v -1.307655 -2.080981 1
v -1.213655 -1.986981 1
v 1.213655 -1.986981 1
v -1.213655 1.679981 1
v 1.307655 1.773981 1
v -1.307655 1.773981 1
v 1.213655 1.679981 1
vt 0.1666667 0
vt 0 0
vt 0 1
vt 0.1666667 1
vt 0.3333333 0
vt 0.1666667 0
vt 0.1666667 1
vt 0.3333333 1
vt 0.5 0
vt 0.3333333 0
vt 0.3333333 1
vt 0.5 1
vt 0.6666667 0
vt 0.5 0
vt 0.5 1
vt 0.6666667 1
vt 0.8333333 0
vt 0.6666667 0
vt 0.6666667 1
vt 0.8333333 1
vt 1 0
vt 0.8333333 0
vt 0.8333333 1
vt 1 1
vt 0.9719728 0.02802718
vt 0.02802716 0.02802718
vt 0.02802716 0.9719728
vt 0.9719728 0.9719728
vt 0.25 0.9330127
vt 0.5 0.5
vt 0 0.5
vt 0.75 0.9330127
vt 0.25 0.06698728
vt 1 0.5
vt 0.75 0.06698728
vt 0.75 0.9330127
vt 1 0.5
vt 0.5 0.5
vt 0.25 0.9330127
vt 0.75 0.06698728
vt 0 0.5
vt 0.25 0.06698728
vt 1 0
vt 0 0
vt 0 1
vt 1 1
vt 1 0
vt 0 0
vt 0 1
vt 1 1
vt 1 0
vt 0 0
vt 0 1
vt 1 1
vt 1 0
vt 0 0
vt 0 1
vt 1 1
vt 1 0
vt 0 0
vt 0 1
vt 1 1
vt 1 0
vt 0 0
vt 0 0
vt 1 0
vt 1 1
vt 1 0
vt 1 0
vt 1 1
vt 0 1
vt 1 1
vt 1 1
vt 0 1
vt 0 0
vt 0 1
vt 0 1
vt 0 0
vt 0.9719728 0.02802718
vt 0.02802716 0.02802718
vt 0.02802716 0.02802718
vt 0.9719728 0.02802718
vt 0.02802716 0.02802718
vt 0.9719728 0.02802718
vt 0.9719728 0.9719728
vt 0.9719728 0.02802718
vt 0.9719728 0.02802718
vt 0.9719728 0.9719728
vt 0.9719728 0.02802718
vt 0.9719728 0.9719728
vt 0.02802716 0.9719728
vt 0.9719728 0.9719728
vt 0.9719728 0.9719728
vt 0.02802716 0.9719728
vt 0.9719728 0.9719728
vt 0.02802716 0.9719728
vt 0.02802716 0.02802718
vt 0.02802716 0.9719728
vt 0.02802716 0.9719728
vt 0.02802716 0.02802718
vt 0.02802716 0.9719728
vt 0.02802716 0.02802718
vt 1 0
vt 0 0
vt 0 0
vt 1 0
vt 0 1
vt 1 1
vt 0 1
vt 1 1
vt 1 0
vt 0 0
vt 0.02802716 0.02802718
vt 0.9719728 0.02802718
vt 0.02802716 0.9719728
vt 1 1
vt 0 1
vt 0.9719728 0.9719728
vn 0 -0.8660253 -0.5000002
vn 0 -0.8660253 -0.5000002
vn 0 -0.8660253 -0.5000002
vn 0 -0.8660253 -0.5000002
vn 0 0 -1
vn 0 0 -1
vn 0 0 -1
vn 0 0 -1
vn 0 0.8660253 -0.5000002
vn 0 0.8660253 -0.5000002
vn 0 0.8660253 -0.5000002
vn 0 0.8660253 -0.5000002
vn 0 0.8660253 0.5000002
vn 0 0.8660253 0.5000002
vn 0 0.8660253 0.5000002
vn 0 0.8660253 0.5000002
vn 0 0 1
vn 0 0 1
vn 0 0 1
vn 0 0 1
vn 0 -0.8660253 0.5000002
vn 0 -0.8660253 0.5000002
vn 0 -0.8660253 0.5000002
vn 0 -0.8660253 0.5000002
vn 0 0 1
vn 0 0 1
vn 0 0 1
vn 0 0 1
vn -1 0 0
vn -1 0 0
vn -1 0 0
vn -1 0 0
vn -1 0 0
vn -1 0 0
vn -1 0 0
vn 1 0 0
vn 1 0 0
vn 1 0 0
vn 1 0 0
vn 1 0 0
vn 1 0 0
vn 1 0 0
vn 1 0 0
vn 1 0 0
vn 1 0 0
vn 1 0 0
vn 0 0 -1
vn 0 0 -1
vn 0 0 -1
vn 0 0 -1
vn -1 0 0
vn -1 0 0
vn -1 0 0
vn -1 0 0
vn 0 1 0
vn 0 1 0
vn 0 1 0
vn 0 1 0
vn 0 -1 0
vn 0 -1 0
vn 0 -1 0
vn 0 -1 0
vn 0 0 1
vn 0 0 1
vn 0 0 1
vn 0 0 1
vn 1 0 0
vn 1 0 0
vn 1 0 0
vn 1 0 0
vn 0 0 -1
vn 0 0 -1
vn 0 0 -1
vn 0 0 -1
vn -1 0 0
vn -1 0 0
vn -1 0 0
vn -1 0 0
vn 0 1 0
vn 0 1 0
vn 0 1 0
vn 0 1 0
vn 0 1 0
vn 0 1 0
vn -1 0 0
vn -1 0 0
vn -1 0 0
vn -1 0 0
vn -1 0 0
vn -1 0 0
vn 0 -1 0
vn 0 -1 0
vn 0 -1 0
vn 0 -1 0
vn 0 -1 0
vn 0 -1 0
vn 1 0 0
vn 1 0 0
vn 1 0 0
vn 1 0 0
vn 1 0 0
vn 1 0 0
vn 0 -1 0
vn 0 -1 0
vn 0 -1 0
vn 0 -1 0
vn 0 -1 0
vn 0 -1 0
vn 0 -1 0
vn 0 -1 0
vn 0 0 1
vn 0 0 1
vn 0 0 1
vn 0 0 1
vn 0 0 1
vn 0 0 1
vn 0 0 1
vn 0 0 1
g Cylinder_1_0
f 3/3/3 2/2/2 1/1/1
f 4/4/4 3/3/3 1/1/1
f 7/7/7 6/6/6 5/5/5
f 8/8/8 7/7/7 5/5/5
f 11/11/11 10/10/10 9/9/9
f 12/12/12 11/11/11 9/9/9
f 15/15/15 14/14/14 13/13/13
f 16/16/16 15/15/15 13/13/13
f 19/19/19 18/18/18 17/17/17
f 20/20/20 19/19/19 17/17/17
f 23/23/23 22/22/22 21/21/21
f 24/24/24 23/23/23 21/21/21
f 27/27/27 26/26/26 25/25/25
f 28/28/28 27/27/27 25/25/25
f 31/31/31 30/30/30 29/29/29
f 29/29/29 30/30/30 32/32/32
f 33/33/33 30/30/30 31/31/31
f 32/32/32 30/30/30 34/34/34
f 35/35/35 30/30/30 33/33/33
f 34/34/34 30/30/30 35/35/35
f 38/38/38 37/37/37 36/36/36
f 38/38/38 36/36/36 39/39/39
f 38/38/38 40/40/40 37/37/37
f 38/38/38 39/39/39 41/41/41
f 38/38/38 42/42/42 40/40/40
f 38/38/38 41/41/41 42/42/42
g Cylinder_1_1
f 45/45/45 44/44/44 43/43/43
f 46/46/46 45/45/45 43/43/43
f 49/49/49 48/48/48 47/47/47
f 50/50/50 49/49/49 47/47/47
f 53/53/53 52/52/52 51/51/51
f 54/54/54 53/53/53 51/51/51
f 57/57/57 56/56/56 55/55/55
f 58/58/58 57/57/57 55/55/55
f 61/61/61 60/60/60 59/59/59
f 62/62/62 61/61/61 59/59/59
f 65/65/65 64/64/64 63/63/63
f 66/66/66 65/65/65 63/63/63
f 69/69/69 68/68/68 67/67/67
f 70/70/70 69/69/69 67/67/67
f 73/73/73 72/72/72 71/71/71
f 74/74/74 73/73/73 71/71/71
f 77/77/77 76/76/76 75/75/75
f 78/78/78 77/77/77 75/75/75
f 81/81/81 80/80/80 79/79/79
f 82/82/82 81/81/81 79/79/79
f 83/83/83 81/81/81 82/82/82
f 84/84/84 83/83/83 82/82/82
f 87/87/87 86/86/86 85/85/85
f 88/88/88 87/87/87 85/85/85
f 89/89/89 87/87/87 88/88/88
f 90/90/90 89/89/89 88/88/88
f 93/93/93 92/92/92 91/91/91
f 94/94/94 93/93/93 91/91/91
f 95/95/95 93/93/93 94/94/94
f 96/96/96 95/95/95 94/94/94
f 99/99/99 98/98/98 97/97/97
f 100/100/100 99/99/99 97/97/97
f 101/101/101 99/99/99 100/100/100
f 102/102/102 101/101/101 100/100/100
f 105/105/105 104/104/104 103/103/103
f 106/106/106 105/105/105 103/103/103
f 105/105/105 107/107/107 104/104/104
f 106/106/106 103/103/103 108/108/108
f 107/107/107 109/109/109 104/104/104
f 110/110/110 106/106/106 108/108/108
f 110/110/110 108/108/108 109/109/109
f 107/107/107 110/110/110 109/109/109
f 113/113/113 112/112/112 111/111/111
f 114/114/114 113/113/113 111/111/111
f 113/113/113 115/115/115 112/112/112
f 114/114/114 111/111/111 116/116/116
f 115/115/115 117/117/117 112/112/112
f 118/118/118 114/114/114 116/116/116
f 118/118/118 116/116/116 117/117/117
f 115/115/115 118/118/118 117/117/117
