g Candy
v 0.5 0 -0.5
v 0.5 0.9999999 -0.5
v -0.5 0.9999999 -0.5
v -0.5 0 -0.5
v -0.5 0 0.5
v -0.5 0.9999999 0.5
v 0.5 0.9999999 0.5
v 0.5 0 0.5
v -0.5 0 -0.5
v -0.5 0.9999999 -0.5
v -0.5 0.9999999 0.5
v -0.5 0 0.5
v 0.5 0 0.5
v 0.5 0.9999999 0.5
v 0.5 0.9999999 -0.5
v 0.5 0 -0.5
v -0.5 0.9999999 -0.5
v 0.5 0.9999999 -0.5
v -0.5 0.9999999 0.5
v 0.5 0.9999999 0.5
v -0.5 0 0.5
v 0.5 0 0.5
v -0.5 0 -0.5
v 0.5 0 -0.5
vt 0.390625 0.03125
vt 0.390625 0.34375
vt 0.546875 0.34375
vt 0.546875 0.03125
vt 0.203125 0.03125
vt 0.203125 0.34375
vt 0.359375 0.34375
vt 0.359375 0.03125
vt 0.015625 0.03125
vt 0.015625 0.34375
vt 0.171875 0.34375
vt 0.171875 0.03125
vt 0.015625 0.40625
vt 0.015625 0.71875
vt 0.171875 0.71875
vt 0.171875 0.40625
vt 0.765625 0.34375
vt 0.921875 0.34375
vt 0.765625 0.03125
vt 0.921875 0.03125
vt 0.578125 0.34375
vt 0.734375 0.34375
vt 0.578125 0.03125
vt 0.734375 0.03125
vn 0 0 -1
vn 0 0 -1
vn 0 0 -1
vn 0 0 -1
vn 0 0 1
vn 0 0 1
vn 0 0 1
vn 0 0 1
vn -1 0 0
vn -1 0 0
vn -1 0 0
vn -1 0 0
vn 1 0 0
vn 1 0 0
vn 1 0 0
vn 1 0 0
vn 0 1 0
vn 0 1 0
vn 0 1 0
vn 0 1 0
vn 0 -1 0
vn 0 -1 0
vn 0 -1 0
vn 0 -1 0
g Candy_0
f 3/3/3 2/2/2 1/1/1
f 4/4/4 3/3/3 1/1/1
f 7/7/7 6/6/6 5/5/5
f 8/8/8 7/7/7 5/5/5
f 11/11/11 10/10/10 9/9/9
f 12/12/12 11/11/11 9/9/9
f 15/15/15 14/14/14 13/13/13
f 16/16/16 15/15/15 13/13/13
f 19/19/19 18/18/18 17/17/17
f 20/20/20 18/18/18 19/19/19
f 23/23/23 22/22/22 21/21/21
f 24/24/24 22/22/22 23/23/23
