g Level3
v -30 4 0
v -30 0 0
v -30 0 -1.2
v -30 4 -1.2
v -30 4 -1.2
v -30 0 -1.2
v -1.135132 0 -1.2
v -1.135132 4 -1.2
v -1.135132 4 -1.2
v -1.135132 0 -1.2
v -1.135132 0 1.788139E-07
v -1.135132 4 1.788139E-07
v -30 0 0
v -1.135132 0 1.788139E-07
v -1.135132 0 -1.2
v -30 0 -1.2
v -1.135132 4 1.788139E-07
v -1.135132 0 1.788139E-07
v -30 0 0
v -30 4 0
v -30 4 -1.2
v -1.135132 4 -1.2
v -1.135132 4 1.788139E-07
v -30 4 0
v -23.43955 4 25.32476
v -23.43955 -2.260362E-08 25.32476
v -22.49061 -2.260362E-08 25.32476
v -22.49061 4 25.32476
v -21.93822 4 26.51999
v -21.93822 -2.260362E-08 26.51999
v -21.93822 -2.260362E-08 46.89912
v -21.93822 3.75 46.89912
v -21.93822 3.75 47.29789
v -21.93822 4 47.29789
v -23.43955 3.75 47.29789
v -23.43955 4 47.29789
v -21.93822 4 47.29789
v -21.93822 3.75 47.29789
v -23.43955 -2.260362E-08 46.89912
v -23.43955 -2.260362E-08 25.32476
v -23.43955 4 25.32476
v -23.43955 4 47.29789
v -23.43955 3.75 47.29789
v -23.43955 3.75 46.89912
v -22.49061 4.000001 25.32476
v -22.49061 -4.520724E-08 25.32476
v -22.49061 -4.520724E-08 25.32
v -22.49061 4.000001 25.32
v -22.49061 4.000001 25.32
v -22.49061 -4.520724E-08 25.32
v -1.675569 -4.520724E-08 25.32
v -1.675569 4.000001 25.32
v -1.675569 4.000001 25.32
v -1.675569 -4.520724E-08 25.32
v -1.675569 -4.520724E-08 26.51999
v -1.675569 4.000001 26.51999
v -1.675569 0 25.32
v -22.49061 0 25.32
v -22.49061 0 25.32476
v -23.43955 0 25.32476
v -23.43955 0 46.89912
v -21.93822 0 46.89912
v -21.93822 0 26.51999
v -1.675569 0 26.51999
v -1.675569 4.000001 26.51999
v -1.675569 -4.520724E-08 26.51999
v -21.93822 -4.520724E-08 26.51999
v -21.93822 4.000001 26.51999
v -23.43955 4 25.32476
v -22.49061 4 25.32476
v -22.49061 4 25.32
v -1.675569 4 25.32
v -1.675569 4 26.51999
v -21.93822 4 26.51999
v -21.93822 4 47.29789
v -23.43955 4 47.29789
v -37.88918 3.75 47.69912
v 6.712213 3.75 47.69912
v 6.712213 -0.2500002 47.69912
v -37.88918 -0.2500002 47.69912
v -37.88918 -0.2500002 47.69912
v -37.88918 -0.2500002 -14.54887
v -37.88918 3.75 -14.54887
v -37.88918 3.75 47.69912
v -37.88918 -0.2500002 -14.54887
v 6.712213 -0.2500002 -14.54887
v 6.712213 3.75 -14.54887
v -37.88918 3.75 -14.54887
v 6.712213 -0.2500002 -14.54887
v 6.712213 -0.2500002 47.69912
v 6.712213 3.75 47.69912
v 6.712213 3.75 -14.54887
v -37.88918 3.75 -14.54887
v 6.712213 3.75 -14.54887
v 6.712213 3.75 47.69912
v -37.88918 3.75 47.69912
v 5.711324 3.75 -13.74887
v -36.88829 3.75 -13.74887
v -36.88829 3.75 46.89912
v -23.43955 3.75 46.89912
v -23.43955 3.75 47.29789
v -21.93822 3.75 47.29789
v -21.93822 3.75 46.89912
v 5.711324 3.75 46.89912
v -37.88918 -0.2500002 47.69912
v 6.712213 -0.2500002 47.69912
v 6.712213 -0.2500002 -14.54887
v -37.88918 -0.2500002 -14.54887
v -23.43955 3.75 46.89912
v -36.88829 3.75 46.89912
v -36.88829 -0.1500003 46.89912
v 5.711324 -0.1500003 46.89912
v 5.711324 3.75 46.89912
v -21.93822 3.75 46.89912
v -21.93822 0 46.89912
v -23.43955 0 46.89912
v -36.88829 -0.1500003 46.89912
v -36.88829 3.75 46.89912
v -36.88829 3.75 -13.74887
v -36.88829 -0.1500003 -13.74887
v -36.88829 3.75 -13.74887
v 5.711324 3.75 -13.74887
v 5.711324 -0.1500003 -13.74887
v -36.88829 -0.1500003 -13.74887
v 5.711324 3.75 -13.74887
v 5.711324 3.75 46.89912
v 5.711324 -0.1500003 46.89912
v 5.711324 -0.1500003 -13.74887
v 5.711324 -0.1500003 46.89912
v -36.88829 -0.1500003 46.89912
v -36.88829 -0.1500003 -13.74887
v 5.711324 -0.1500003 -13.74887
vt 0 4
vt 0 0
vt -1.2 0
vt -1.2 4
vt 30 4
vt 30 0
vt 1.135132 0
vt 1.135132 4
vt 1.2 4
vt 1.2 0
vt -1.788139E-07 0
vt -1.788139E-07 4
vt -30 0
vt -1.135132 -1.788139E-07
vt -1.135132 1.2
vt -30 1.2
vt -1.135132 4
vt -1.135132 0
vt -30 0
vt -30 4
vt 30 -1.2
vt 1.135132 -1.2
vt 1.135132 1.788139E-07
vt 30 0
vt 23.43955 4
vt 23.43955 0
vt 22.49061 0
vt 22.49061 4
vt -26.51999 4
vt -26.51999 0
vt -46.89912 0
vt -46.89912 3.75
vt -47.29789 3.75
vt -47.29789 4
vt -23.43955 3.75
vt -23.43955 4
vt -21.93822 4
vt -21.93822 3.75
vt 46.89912 0
vt 25.32476 0
vt 25.32476 4
vt 47.29789 4
vt 47.29789 3.75
vt 46.89912 3.75
vt 25.32476 4.000001
vt 25.32476 -5.960464E-08
vt 25.32 -5.960464E-08
vt 25.32 4.000001
vt 22.49061 4.000001
vt 22.49061 -5.960464E-08
vt 1.675569 -5.960464E-08
vt 1.675569 4.000001
vt -25.32 4.000001
vt -25.32 -5.960464E-08
vt -26.51999 -5.960464E-08
vt -26.51999 4.000001
vt -1.675569 -25.32
vt -22.49061 -25.32
vt -22.49061 -25.32476
vt -23.43955 -25.32476
vt -23.43955 -46.89912
vt -21.93822 -46.89912
vt -21.93822 -26.51999
vt -1.675569 -26.51999
vt -1.675569 4.000001
vt -1.675569 -5.960464E-08
vt -21.93822 -5.960464E-08
vt -21.93822 4.000001
vt 23.43955 25.32476
vt 22.49061 25.32476
vt 22.49061 25.32
vt 1.675569 25.32
vt 1.675569 26.51999
vt 21.93822 26.51999
vt 21.93822 47.29789
vt 23.43955 47.29789
vt -37.88918 3.75
vt 6.712213 3.75
vt 6.712213 -0.2500002
vt -37.88918 -0.2500002
vt 0 0
vt -62.24798 0
vt -62.24798 4
vt 0 4
vt 37.88918 -0.2500002
vt -6.712213 -0.2500002
vt -6.712213 3.75
vt 37.88918 3.75
vt 14.54887 -0.2500002
vt -47.69912 -0.2500002
vt -47.69912 3.75
vt 14.54887 3.75
vt 37.88918 -14.54887
vt -6.712213 -14.54887
vt -6.712213 47.69912
vt 37.88918 47.69912
vt -5.711324 -13.74887
vt 36.88829 -13.74887
vt 36.88829 46.89912
vt 23.43955 46.89912
vt 23.43955 47.29789
vt 21.93822 47.29789
vt 21.93822 46.89912
vt -5.711324 46.89912
vt -37.88918 -47.69912
vt 6.712213 -47.69912
vt 6.712213 14.54887
vt -37.88918 14.54887
vt 23.43955 3.75
vt 36.88829 3.75
vt 36.88829 -0.1500003
vt -5.711324 -0.1500003
vt -5.711324 3.75
vt 21.93822 3.75
vt 21.93822 0
vt 23.43955 0
vt -0.8 0.0999999
vt -0.8 4
vt -61.44798 4
vt -61.44798 0.0999999
vt -36.88829 3.75
vt 5.711324 3.75
vt 5.711324 -0.1500003
vt -36.88829 -0.1500003
vt -13.74887 3.75
vt 46.89912 3.75
vt 46.89912 -0.1500003
vt -13.74887 -0.1500003
vt -5.711324 46.89912
vt 36.88829 46.89912
vt 36.88829 -13.74887
vt -5.711324 -13.74887
vn -1 0 0
vn -1 0 0
vn -1 0 0
vn -1 0 0
vn 8.259819E-09 0 -1
vn 8.259819E-09 0 -1
vn 8.259819E-09 0 -1
vn 8.259819E-09 0 -1
vn 1 0 0
vn 1 0 0
vn 1 0 0
vn 1 0 0
vn 0 -1 0
vn 0 -1 0
vn 0 -1 0
vn 0 -1 0
vn -6.194864E-09 0 1
vn -6.194864E-09 0 1
vn -6.194864E-09 0 1
vn -6.194864E-09 0 1
vn 0 1 0
vn 0 1 0
vn 0 1 0
vn 0 1 0
vn 0 0 -1
vn 0 0 -1
vn 0 0 -1
vn 0 0 -1
vn 1 0 9.179699E-08
vn 1 0 9.179699E-08
vn 1 0 9.179699E-08
vn 1 0 9.179699E-08
vn 1 0 9.179699E-08
vn 1 0 9.179699E-08
vn 0 0 1
vn 0 0 1
vn 0 0 1
vn 0 0 1
vn -1 0 -1.736073E-07
vn -1 0 -1.736073E-07
vn -1 0 -1.736073E-07
vn -1 0 -1.736073E-07
vn -1 0 -1.736073E-07
vn -1 0 -1.736073E-07
vn -1 0 0
vn -1 0 0
vn -1 0 0
vn -1 0 0
vn 0 0 -1
vn 0 0 -1
vn 0 0 -1
vn 0 0 -1
vn 1 0 9.934117E-08
vn 1 0 9.934117E-08
vn 1 0 9.934117E-08
vn 1 0 9.934117E-08
vn 0 -1 0
vn 0 -1 0
vn 0 -1 0
vn 0 -1 0
vn 0 -1 0
vn 0 -1 0
vn 0 -1 0
vn 0 -1 0
vn 0 0 1
vn 0 0 1
vn 0 0 1
vn 0 0 1
vn 0 1 0
vn 0 1 0
vn 0 1 0
vn 0 1 0
vn 0 1 0
vn 0 1 0
vn 0 1 0
vn 0 1 0
vn 0 0 1
vn 0 0 1
vn 0 0 1
vn 0 0 1
vn -1 0 0
vn -1 0 0
vn -1 0 0
vn -1 0 0
vn 0 0 -1
vn 0 0 -1
vn 0 0 -1
vn 0 0 -1
vn 1 0 0
vn 1 0 0
vn 1 0 0
vn 1 0 0
vn 0 1 0
vn 0 1 0
vn 0 1 0
vn 0 1 0
vn 0 1 0
vn 0 1 0
vn 0 1 0
vn 0 1 0
vn 0 1 0
vn 0 1 0
vn 0 1 0
vn 0 1 0
vn 0 -1 0
vn 0 -1 0
vn 0 -1 0
vn 0 -1 0
vn 0 0 -1
vn 0 0 -1
vn 0 0 -1
vn 0 0 -1
vn 0 0 -1
vn 0 0 -1
vn 0 0 -1
vn 0 0 -1
vn 1 0 0
vn 1 0 0
vn 1 0 0
vn 1 0 0
vn 0 0 1
vn 0 0 1
vn 0 0 1
vn 0 0 1
vn -1 0 0
vn -1 0 0
vn -1 0 0
vn -1 0 0
vn 0 1 0
vn 0 1 0
vn 0 1 0
vn 0 1 0
g Level3_0
f 3/3/3 2/2/2 1/1/1
f 4/4/4 3/3/3 1/1/1
f 7/7/7 6/6/6 5/5/5
f 8/8/8 7/7/7 5/5/5
f 11/11/11 10/10/10 9/9/9
f 12/12/12 11/11/11 9/9/9
f 15/15/15 14/14/14 13/13/13
f 16/16/16 15/15/15 13/13/13
f 19/19/19 18/18/18 17/17/17
f 20/20/20 19/19/19 17/17/17
f 23/23/23 22/22/22 21/21/21
f 24/24/24 23/23/23 21/21/21
f 27/27/27 26/26/26 25/25/25
f 28/28/28 27/27/27 25/25/25
f 30/30/30 29/29/29 31/31/31
f 31/31/31 29/29/29 32/32/32
f 32/32/32 29/29/29 33/33/33
f 33/33/33 29/29/29 34/34/34
f 37/37/37 36/36/36 35/35/35
f 38/38/38 37/37/37 35/35/35
f 44/44/44 42/42/42 40/40/40
f 39/39/39 44/44/44 40/40/40
f 40/40/40 42/42/42 41/41/41
f 43/43/43 42/42/42 44/44/44
f 47/47/47 46/46/46 45/45/45
f 48/48/48 47/47/47 45/45/45
f 51/51/51 50/50/50 49/49/49
f 52/52/52 51/51/51 49/49/49
f 55/55/55 54/54/54 53/53/53
f 56/56/56 55/55/55 53/53/53
f 64/64/64 63/63/63 59/59/59
f 57/57/57 64/64/64 59/59/59
f 58/58/58 57/57/57 59/59/59
f 60/60/60 59/59/59 63/63/63
f 61/61/61 60/60/60 63/63/63
f 62/62/62 61/61/61 63/63/63
f 67/67/67 66/66/66 65/65/65
f 68/68/68 67/67/67 65/65/65
f 76/76/76 75/75/75 69/69/69
f 69/69/69 75/75/75 70/70/70
f 70/70/70 75/75/75 71/71/71
f 71/71/71 75/75/75 74/74/74
f 71/71/71 74/74/74 73/73/73
f 71/71/71 73/73/73 72/72/72
f 79/79/79 78/78/78 77/77/77
f 80/80/80 79/79/79 77/77/77
f 83/83/83 82/82/82 81/81/81
f 84/84/84 83/83/83 81/81/81
f 87/87/87 86/86/86 85/85/85
f 88/88/88 87/87/87 85/85/85
f 91/91/91 90/90/90 89/89/89
f 92/92/92 91/91/91 89/89/89
f 99/99/99 96/96/96 101/101/101
f 101/101/101 96/96/96 102/102/102
f 103/103/103 102/102/102 104/104/104
f 102/102/102 96/96/96 104/104/104
f 104/104/104 96/96/96 95/95/95
f 104/104/104 95/95/95 97/97/97
f 97/97/97 95/95/95 94/94/94
f 96/96/96 99/99/99 93/93/93
f 93/93/93 99/99/99 98/98/98
f 93/93/93 98/98/98 97/97/97
f 93/93/93 97/97/97 94/94/94
f 100/100/100 99/99/99 101/101/101
f 107/107/107 106/106/106 105/105/105
f 108/108/108 107/107/107 105/105/105
f 109/109/109 116/116/116 110/110/110
f 111/111/111 110/110/110 116/116/116
f 111/111/111 116/116/116 115/115/115
f 115/115/115 114/114/114 112/112/112
f 111/111/111 115/115/115 112/112/112
f 112/112/112 114/114/114 113/113/113
f 119/119/119 118/118/118 117/117/117
f 120/120/120 119/119/119 117/117/117
f 123/123/123 122/122/122 121/121/121
f 124/124/124 123/123/123 121/121/121
f 127/127/127 126/126/126 125/125/125
f 128/128/128 127/127/127 125/125/125
f 131/131/131 130/130/130 129/129/129
f 132/132/132 131/131/131 129/129/129
