g level1
v 0 0 0
v -35.64944 0 0
v -35.64944 4 0
v 0 4 0
v -35.64944 0 0
v -35.64944 0 -62.24798
v -35.64944 4 -62.24798
v -35.64944 4 0
v -35.64944 0 -62.24798
v 0 0 -62.24798
v 0 4 -62.24798
v -35.64944 4 -62.24798
v 0 0 -62.24798
v 0 0 0
v 0 4 0
v 0 4 -62.24798
v 0 4 0
v -35.64944 4 0
v -35.64944 4 -62.24798
v 0 4 -62.24798
v -34.84944 4 -0.8
v -0.8 4 -0.8
v -0.8 4 -61.44798
v -34.84944 4 -61.44798
v 0 0 0
v 0 0 -62.24798
v -35.64944 0 -62.24798
v -35.64944 0 0
v -0.8 0.0999999 -0.8
v -0.8 4 -0.8
v -34.84944 4 -0.8
v -34.84944 0.0999999 -0.8
v -34.84944 0.0999999 -0.8
v -34.84944 4 -0.8
v -34.84944 4 -61.44798
v -34.84944 0.0999999 -61.44798
v -34.84944 0.0999999 -61.44798
v -34.84944 4 -61.44798
v -0.8 4 -61.44798
v -0.8 0.0999999 -61.44798
v -0.8 0.0999999 -61.44798
v -0.8 4 -61.44798
v -0.8 4 -0.8
v -0.8 0.0999999 -0.8
v -0.8 0.0999999 -0.8
v -34.84944 0.0999999 -0.8
v -34.84944 0.0999999 -61.44798
v -0.8 0.0999999 -61.44798
v -6.275131 0.25 -35.05369
v -6.275131 0.25 -33.59266
v -6.275131 4.25 -33.59266
v -6.275131 4.25 -35.05369
v -20.70757 0.25 -35.05369
v -6.275131 0.25 -35.05369
v -6.275131 4.25 -35.05369
v -20.70757 4.25 -35.05369
v -20.70757 0.25 -33.59266
v -6.275131 0.25 -33.59266
v -6.275131 0.25 -35.05369
v -20.70757 0.25 -35.05369
v -20.70757 4.25 -35.05369
v -6.275131 4.25 -35.05369
v -6.275131 4.25 -33.59266
v -20.70757 4.25 -33.59266
v -20.70757 4.25 -33.59266
v -6.275131 4.25 -33.59266
v -6.275131 0.25 -33.59266
v -20.70757 0.25 -33.59266
v -27.92378 0.25 -33.59266
v -35.14 0.25 -33.59266
v -35.14 4.25 -33.59266
v -27.92378 4.25 -33.59266
v -27.92378 4.25 -33.59266
v -20.70757 4.25 -33.59266
v -20.70757 0.25 -33.59266
v -27.92378 0.25 -33.59266
v -23.43756 4.25 -48.81012
v -23.43756 0.25 -48.81012
v -20.70757 0.25 -45.48629
v -20.70757 4.25 -45.48629
v -20.70757 0.25 -35.05369
v -20.70757 4.25 -35.05369
v -20.70757 4.25 -45.48629
v -20.70757 0.25 -45.48629
v -35.14 0.25 -33.59266
v -35.14 0.25 -35.05369
v -35.14 4.25 -35.05369
v -35.14 4.25 -33.59266
v -35.14 4.25 -35.05369
v -35.14 0.25 -35.05369
v -35.14 0.25 -48.81012
v -35.14 4.25 -48.81012
v -27.92378 0.25 -48.81012
v -35.14 0.25 -48.81012
v -35.14 0.25 -35.05369
v -27.92378 0.25 -35.05369
v -27.92378 0.25 -35.05369
v -35.14 0.25 -35.05369
v -35.14 0.25 -33.59266
v -27.92378 0.25 -33.59266
v -27.92378 0.25 -33.59266
v -20.70757 0.25 -33.59266
v -20.70757 0.25 -35.05369
v -27.92378 0.25 -35.05369
v -27.92378 4.25 -33.59266
v -35.14 4.25 -33.59266
v -35.14 4.25 -35.05369
v -27.92378 4.25 -35.05369
v -27.92378 4.25 -35.05369
v -20.70757 4.25 -35.05369
v -20.70757 4.25 -33.59266
v -27.92378 4.25 -33.59266
v -27.92378 4.25 -35.05369
v -35.14 4.25 -35.05369
v -35.14 4.25 -48.81012
v -27.92378 4.25 -48.81012
v -27.92378 0.25 -35.05369
v -20.70757 0.25 -35.05369
v -20.70757 0.25 -45.48629
v -23.43756 0.25 -48.81012
v -27.92378 0.25 -48.81012
v -20.70757 4.25 -35.05369
v -27.92378 4.25 -35.05369
v -27.92378 4.25 -48.81012
v -23.43756 4.25 -48.81012
v -20.70757 4.25 -45.48629
v -27.92378 0.25 -48.81012
v -23.43756 0.25 -48.81012
v -23.43756 4.25 -48.81012
v -27.92378 4.25 -48.81012
v -27.92378 4.25 -48.81012
v -35.14 4.25 -48.81012
v -35.14 0.25 -48.81012
v -27.92378 0.25 -48.81012
vt 0 0
vt -35.64944 0
vt -35.64944 4
vt 0 4
vt 0 0
vt -62.24798 0
vt -62.24798 4
vt 0 4
vt 35.64944 0
vt 0 0
vt 0 4
vt 35.64944 4
vt 62.24798 0
vt 0 0
vt 0 4
vt 62.24798 4
vt 0 0
vt 35.64944 0
vt 35.64944 -62.24798
vt 0 -62.24798
vt 34.84944 -0.8
vt 0.8 -0.8
vt 0.8 -61.44798
vt 34.84944 -61.44798
vt 0 0
vt 0 62.24798
vt -35.64944 62.24798
vt -35.64944 0
vt -0.8 0.0999999
vt -0.8 4
vt -34.84944 4
vt -34.84944 0.0999999
vt -0.8 0.0999999
vt -0.8 4
vt -61.44798 4
vt -61.44798 0.0999999
vt 34.84944 0.0999999
vt 34.84944 4
vt 0.8 4
vt 0.8 0.0999999
vt 61.44798 0.0999999
vt 61.44798 4
vt 0.8 4
vt 0.8 0.0999999
vt 0.8 -0.8
vt 34.84944 -0.8
vt 34.84944 -61.44798
vt 0.8 -61.44798
vt 1.2 0
vt -1.788139E-07 0
vt -1.788139E-07 4
vt 1.2 4
vt 15.56757 0
vt 1.135132 0
vt 1.135132 4
vt 15.56757 4
vt -15.56757 -1.192093E-07
vt -1.135132 -1.788139E-07
vt -1.135132 1.2
vt -15.56757 1.2
vt 15.56757 -1.2
vt 1.135132 -1.2
vt 1.135132 1.788139E-07
vt 15.56757 8.940697E-08
vt -15.56757 4
vt -1.135132 4
vt -1.135132 0
vt -15.56757 0
vt -22.78378 0
vt -30 0
vt -30 4
vt -22.78378 4
vt -22.78378 4
vt -15.56757 4
vt -15.56757 0
vt -22.78378 0
vt 12.49871 4
vt 12.49871 0
vt 9.768709 0
vt 9.768709 4
vt 1.2 0
vt 1.2 4
vt 9.768709 4
vt 9.768709 0
vt 0 0
vt -1.2 0
vt -1.2 4
vt 0 4
vt -1.2 4
vt -1.2 0
vt -12.49871 0
vt -12.49871 4
vt -22.78378 12.49871
vt -30 12.49871
vt -30 1.2
vt -22.78378 1.2
vt -22.78378 1.2
vt -30 1.2
vt -30 0
vt -22.78378 -5.960464E-08
vt -22.78378 -5.960464E-08
vt -15.56757 -1.192093E-07
vt -15.56757 1.2
vt -22.78378 1.2
vt 22.78378 5.960464E-08
vt 30 0
vt 30 -1.2
vt 22.78378 -1.2
vt 22.78378 -1.2
vt 15.56757 -1.2
vt 15.56757 8.940697E-08
vt 22.78378 5.960464E-08
vt 22.78378 -1.2
vt 30 -1.2
vt 30 -12.49871
vt 22.78378 -12.49871
vt -22.78378 1.2
vt -15.56757 1.2
vt -15.56757 9.768709
vt -18.29757 12.49871
vt -22.78378 12.49871
vt 15.56757 -1.2
vt 22.78378 -1.2
vt 22.78378 -12.49871
vt 18.29757 -12.49871
vt 15.56757 -9.768709
vt 22.78378 0
vt 18.29757 0
vt 18.29757 4
vt 22.78378 4
vt 22.78378 4
vt 30 4
vt 30 0
vt 22.78378 0
vn 0 0 1
vn 0 0 1
vn 0 0 1
vn 0 0 1
vn -1 0 0
vn -1 0 0
vn -1 0 0
vn -1 0 0
vn 0 0 -1
vn 0 0 -1
vn 0 0 -1
vn 0 0 -1
vn 1 0 0
vn 1 0 0
vn 1 0 0
vn 1 0 0
vn 0 1 0
vn 0 1 0
vn 0 1 0
vn 0 1 0
vn 0 1 0
vn 0 1 0
vn 0 1 0
vn 0 1 0
vn 0 -1 0
vn 0 -1 0
vn 0 -1 0
vn 0 -1 0
vn 0 0 -1
vn 0 0 -1
vn 0 0 -1
vn 0 0 -1
vn 1 0 0
vn 1 0 0
vn 1 0 0
vn 1 0 0
vn 0 0 1
vn 0 0 1
vn 0 0 1
vn 0 0 1
vn -1 0 0
vn -1 0 0
vn -1 0 0
vn -1 0 0
vn 0 1 0
vn 0 1 0
vn 0 1 0
vn 0 1 0
vn 1 0 0
vn 1 0 0
vn 1 0 0
vn 1 0 0
vn 0 0 -1
vn 0 0 -1
vn 0 0 -1
vn 0 0 -1
vn 0 -1 0
vn 0 -1 0
vn 0 -1 0
vn 0 -1 0
vn 0 1 0
vn 0 1 0
vn 0 1 0
vn 0 1 0
vn 0 0 1
vn 0 0 1
vn 0 0 1
vn 0 0 1
vn 0 0 1
vn 0 0 1
vn 0 0 1
vn 0 0 1
vn 0 0 1
vn 0 0 1
vn 0 0 1
vn 0 0 1
vn 0.7727599 0 -0.6346984
vn 0.7727599 0 -0.6346984
vn 0.7727599 0 -0.6346984
vn 0.7727599 0 -0.6346984
vn 1 0 0
vn 1 0 0
vn 1 0 0
vn 1 0 0
vn -1 0 0
vn -1 0 0
vn -1 0 0
vn -1 0 0
vn -1 0 0
vn -1 0 0
vn -1 0 0
vn -1 0 0
vn 0 -1 0
vn 0 -1 0
vn 0 -1 0
vn 0 -1 0
vn 0 -1 0
vn 0 -1 0
vn 0 -1 0
vn 0 -1 0
vn 0 -1 0
vn 0 -1 0
vn 0 -1 0
vn 0 -1 0
vn 0 1 0
vn 0 1 0
vn 0 1 0
vn 0 1 0
vn 0 1 0
vn 0 1 0
vn 0 1 0
vn 0 1 0
vn 0 1 0
vn 0 1 0
vn 0 1 0
vn 0 1 0
vn 0 -1 0
vn 0 -1 0
vn 0 -1 0
vn 0 -1 0
vn 0 -1 0
vn 0 1 0
vn 0 1 0
vn 0 1 0
vn 0 1 0
vn 0 1 0
vn 0 0 -1
vn 0 0 -1
vn 0 0 -1
vn 0 0 -1
vn 0 0 -1
vn 0 0 -1
vn 0 0 -1
vn 0 0 -1
g level1_0
f 3/3/3 2/2/2 1/1/1
f 4/4/4 3/3/3 1/1/1
f 7/7/7 6/6/6 5/5/5
f 8/8/8 7/7/7 5/5/5
f 11/11/11 10/10/10 9/9/9
f 12/12/12 11/11/11 9/9/9
f 15/15/15 14/14/14 13/13/13
f 16/16/16 15/15/15 13/13/13
f 21/21/21 18/18/18 22/22/22
f 22/22/22 18/18/18 17/17/17
f 22/22/22 17/17/17 23/23/23
f 23/23/23 17/17/17 20/20/20
f 18/18/18 21/21/21 19/19/19
f 19/19/19 21/21/21 24/24/24
f 19/19/19 24/24/24 23/23/23
f 19/19/19 23/23/23 20/20/20
f 27/27/27 26/26/26 25/25/25
f 28/28/28 27/27/27 25/25/25
f 31/31/31 30/30/30 29/29/29
f 32/32/32 31/31/31 29/29/29
f 35/35/35 34/34/34 33/33/33
f 36/36/36 35/35/35 33/33/33
f 39/39/39 38/38/38 37/37/37
f 40/40/40 39/39/39 37/37/37
f 43/43/43 42/42/42 41/41/41
f 44/44/44 43/43/43 41/41/41
f 47/47/47 46/46/46 45/45/45
f 48/48/48 47/47/47 45/45/45
f 51/51/51 50/50/50 49/49/49
f 52/52/52 51/51/51 49/49/49
f 55/55/55 54/54/54 53/53/53
f 56/56/56 55/55/55 53/53/53
f 59/59/59 58/58/58 57/57/57
f 60/60/60 59/59/59 57/57/57
f 63/63/63 62/62/62 61/61/61
f 64/64/64 63/63/63 61/61/61
f 67/67/67 66/66/66 65/65/65
f 68/68/68 67/67/67 65/65/65
f 71/71/71 70/70/70 69/69/69
f 72/72/72 71/71/71 69/69/69
f 75/75/75 74/74/74 73/73/73
f 76/76/76 75/75/75 73/73/73
f 79/79/79 78/78/78 77/77/77
f 80/80/80 79/79/79 77/77/77
f 83/83/83 82/82/82 81/81/81
f 84/84/84 83/83/83 81/81/81
f 87/87/87 86/86/86 85/85/85
f 88/88/88 87/87/87 85/85/85
f 91/91/91 90/90/90 89/89/89
f 92/92/92 91/91/91 89/89/89
f 95/95/95 94/94/94 93/93/93
f 96/96/96 95/95/95 93/93/93
f 99/99/99 98/98/98 97/97/97
f 100/100/100 99/99/99 97/97/97
f 103/103/103 102/102/102 101/101/101
f 104/104/104 103/103/103 101/101/101
f 107/107/107 106/106/106 105/105/105
f 108/108/108 107/107/107 105/105/105
f 111/111/111 110/110/110 109/109/109
f 112/112/112 111/111/111 109/109/109
f 115/115/115 114/114/114 113/113/113
f 116/116/116 115/115/115 113/113/113
f 119/119/119 118/118/118 117/117/117
f 120/120/120 119/119/119 117/117/117
f 121/121/121 120/120/120 117/117/117
f 124/124/124 123/123/123 122/122/122
f 125/125/125 124/124/124 122/122/122
f 126/126/126 125/125/125 122/122/122
f 129/129/129 128/128/128 127/127/127
f 130/130/130 129/129/129 127/127/127
f 133/133/133 132/132/132 131/131/131
f 134/134/134 133/133/133 131/131/131
