g Level8
v -1.135132 0 20.98362
v -30 0 20.98362
v -30 4 20.98362
v -1.135132 4 20.98362
v -30 0 17.32606
v -1.135132 0 17.32606
v -1.135132 4 17.32606
v -30 4 17.32606
v -1.135132 0 20.98362
v -1.135132 0 17.32606
v -30 0 17.32606
v -30 0 20.98362
v -30 0 20.98362
v -30 0 17.32606
v -30 4 17.32606
v -30 4 20.98362
v -1.135132 0 17.32606
v -1.135132 0 20.98362
v -1.135132 4 20.98362
v -1.135132 4 17.32606
v -1.135132 4 20.98362
v -30 4 20.98362
v -30 4 17.32606
v -1.135132 4 17.32606
v -67.00504 6.237329E-09 8.540003
v -96.97894 6.237329E-09 8.540003
v -96.97894 4 8.540003
v -67.00504 4 8.540003
v -96.97894 6.237329E-09 8.540003
v -96.97894 6.237329E-09 0.6321974
v -96.97894 4 0.6321974
v -96.97894 4 8.540003
v -96.97894 6.237329E-09 0.6321974
v -67.00504 6.237329E-09 0.6321979
v -67.00504 4 0.6321979
v -96.97894 4 0.6321974
v -67.00504 0 8.540003
v -67.00504 0 0.6321979
v -96.97894 0 0.6321974
v -96.97894 0 8.540003
v -67.00504 6.237329E-09 0.6321979
v -67.00504 6.237329E-09 8.540003
v -67.00504 4 8.540003
v -67.00504 4 0.6321979
v -67.00504 4 8.540003
v -96.97894 4 8.540003
v -96.97894 4 0.6321974
v -67.00504 4 0.6321979
v -71.35686 7.833972E-08 39.60001
v -71.35686 7.833972E-08 38.40001
v -71.35686 4 38.40001
v -71.35686 4 39.60001
v -71.35686 7.833972E-08 38.40001
v -48.22151 7.833972E-08 38.40001
v -48.22151 4 38.40001
v -71.35686 4 38.40001
v -48.22151 7.833972E-08 38.40001
v -48.22151 7.833972E-08 39.60001
v -48.22151 4 39.60001
v -48.22151 4 38.40001
v -48.22151 0 39.60001
v -48.22151 0 38.40001
v -71.35686 0 38.40001
v -71.35686 0 39.60001
v -48.22151 7.833972E-08 39.60001
v -71.35686 7.833972E-08 39.60001
v -71.35686 4 39.60001
v -48.22151 4 39.60001
v -48.22151 4 39.60001
v -71.35686 4 39.60001
v -71.35686 4 38.40001
v -48.22151 4 38.40001
v 0.1248536 -0.25 62.77913
v -98.78643 -0.25 62.77913
v -98.78643 3.75 62.77913
v 0.1248536 3.75 62.77913
v -98.78643 -0.25 62.77913
v -98.78643 -0.25 0.5311396
v -98.78643 3.75 0.5311396
v -98.78643 3.75 62.77913
v -98.78643 -0.25 0.5311396
v 0.1248536 -0.25 0.5311396
v 0.1248536 3.75 0.5311396
v -98.78643 3.75 0.5311396
v 0.1248536 -0.25 0.5311396
v 0.1248536 -0.25 62.77913
v 0.1248536 3.75 62.77913
v 0.1248536 3.75 0.5311396
v 0.1248536 3.75 62.77913
v -98.78643 3.75 62.77913
v -98.78643 3.75 0.5311396
v 0.1248536 3.75 0.5311396
v -96.56679 3.75 61.97913
v -2.094789 3.75 61.97913
v -2.094789 3.75 1.331139
v -96.56679 3.75 1.331139
v 0.1248536 -0.25 62.77913
v 0.1248536 -0.25 0.5311396
v -98.78643 -0.25 0.5311396
v -98.78643 -0.25 62.77913
v -2.094789 -0.1500001 61.97913
v -2.094789 3.75 61.97913
v -96.56679 3.75 61.97913
v -96.56679 -0.1500001 61.97913
v -96.56679 -0.1500001 61.97913
v -96.56679 3.75 61.97913
v -96.56679 3.75 1.331139
v -96.56679 -0.1500001 1.331139
v -96.56679 -0.1500001 1.331139
v -96.56679 3.75 1.331139
v -2.094789 3.75 1.331139
v -2.094789 -0.1500001 1.331139
v -2.094789 -0.1500001 1.331139
v -2.094789 3.75 1.331139
v -2.094789 3.75 61.97913
v -2.094789 -0.1500001 61.97913
v -2.094789 -0.1500001 61.97913
v -96.56679 -0.1500001 61.97913
v -96.56679 -0.1500001 1.331139
v -2.094789 -0.1500001 1.331139
v -49.40092 7.833972E-08 17.42477
v -46.07146 7.833972E-08 17.42477
v -46.07146 4 17.42477
v -49.40092 4 17.42477
v -46.07146 7.833972E-08 17.42477
v -46.07147 7.833972E-08 52.94164
v -46.07147 4 52.94164
v -46.07146 4 17.42477
v -46.07147 7.833972E-08 52.94164
v -49.40093 7.833972E-08 52.94164
v -49.40093 4 52.94164
v -46.07147 4 52.94164
v -49.40093 0 52.94164
v -46.07147 0 52.94164
v -46.07146 0 17.42477
v -49.40092 0 17.42477
v -49.40093 7.833972E-08 52.94164
v -49.40092 7.833972E-08 17.42477
v -49.40092 4 17.42477
v -49.40093 4 52.94164
v -49.40093 4 52.94164
v -49.40092 4 17.42477
v -46.07146 4 17.42477
v -46.07147 4 52.94164
v -1.135132 5.430559E-08 39.60363
v -30 5.430559E-08 39.60363
v -30 4 39.60363
v -1.135132 4 39.60363
v -30 5.430559E-08 35.94607
v -1.135132 5.430559E-08 35.94607
v -1.135132 4 35.94607
v -30 4 35.94607
v -1.135132 0 39.60363
v -1.135132 0 35.94607
v -30 0 35.94607
v -30 0 39.60363
v -30 5.430559E-08 39.60363
v -30 5.430559E-08 35.94607
v -30 4 35.94607
v -30 4 39.60363
v -1.135132 5.430559E-08 35.94607
v -1.135132 5.430559E-08 39.60363
v -1.135132 4 39.60363
v -1.135132 4 35.94607
v -1.135132 4 39.60363
v -30 4 39.60363
v -30 4 35.94607
v -1.135132 4 35.94607
vt -1.135132 0
vt -30 0
vt -30 4
vt -1.135132 4
vt 30 0
vt 1.135132 0
vt 1.135132 4
vt 30 4
vt -1.135132 -20.98362
vt -1.135132 -17.32606
vt -30 -17.32606
vt -30 -20.98362
vt 20.98362 0
vt 17.32606 0
vt 17.32606 4
vt 20.98362 4
vt -17.32606 0
vt -20.98362 0
vt -20.98362 4
vt -17.32606 4
vt 1.135132 20.98362
vt 30 20.98362
vt 30 17.32606
vt 1.135132 17.32606
vt -1.135132 0
vt -30 0
vt -30 4
vt -1.135132 4
vt 0 0
vt -7.907804 0
vt -7.907804 4
vt 0 4
vt 30 0
vt 1.135132 0
vt 1.135132 4
vt 30 4
vt -1.135132 -1.788139E-07
vt -1.135132 7.907804
vt -30 7.907804
vt -30 0
vt 7.907804 0
vt -1.788139E-07 0
vt -1.788139E-07 4
vt 7.907804 4
vt 1.135132 1.788139E-07
vt 30 0
vt 30 -7.907804
vt 1.135132 -7.907804
vt 0 0
vt -1.2 0
vt -1.2 4
vt 0 4
vt 30 0
vt 1.135132 0
vt 1.135132 4
vt 30 4
vt 1.2 0
vt -1.788139E-07 0
vt -1.788139E-07 4
vt 1.2 4
vt -1.135132 -1.788139E-07
vt -1.135132 1.2
vt -30 1.2
vt -30 0
vt -1.135132 0
vt -30 0
vt -30 4
vt -1.135132 4
vt 1.135132 1.788139E-07
vt 30 0
vt 30 -1.2
vt 1.135132 -1.2
vt 0 0
vt -35.64944 0
vt -35.64944 4
vt 0 4
vt 0 0
vt -62.24798 0
vt -62.24798 4
vt 0 4
vt 35.64944 0
vt 0 0
vt 0 4
vt 35.64944 4
vt 62.24798 0
vt 0 0
vt 0 4
vt 62.24798 4
vt 0 0
vt 35.64944 0
vt 35.64944 -62.24798
vt 0 -62.24798
vt 34.84944 -0.8
vt 0.8 -0.8
vt 0.8 -61.44798
vt 34.84944 -61.44798
vt 0 0
vt 0 62.24798
vt -35.64944 62.24798
vt -35.64944 0
vt -0.8 0.0999999
vt -0.8 4
vt -34.84944 4
vt -34.84944 0.0999999
vt -0.8 0.0999999
vt -0.8 4
vt -61.44798 4
vt -61.44798 0.0999999
vt 34.84944 0.0999999
vt 34.84944 4
vt 0.8 4
vt 0.8 0.0999999
vt 61.44798 0.0999999
vt 61.44798 4
vt 0.8 4
vt 0.8 0.0999999
vt 0.8 -0.8
vt 34.84944 -0.8
vt 34.84944 -61.44798
vt 0.8 -61.44798
vt 0 0
vt -1.2 0
vt -1.2 4
vt 0 4
vt 30 0
vt -16.6565 0
vt -16.6565 4
vt 30 4
vt 1.200001 0
vt 1.430511E-06 0
vt 1.430511E-06 4
vt 1.200001 4
vt 16.6565 1.430511E-06
vt 16.6565 1.200001
vt -30 1.2
vt -30 0
vt 16.6565 0
vt -30 0
vt -30 4
vt 16.6565 4
vt -16.6565 -1.430511E-06
vt 30 0
vt 30 -1.2
vt -16.6565 -1.200001
vt -1.135132 0
vt -30 0
vt -30 4
vt -1.135132 4
vt 30 0
vt 1.135132 0
vt 1.135132 4
vt 30 4
vt -1.135132 -20.98362
vt -1.135132 -17.32606
vt -30 -17.32606
vt -30 -20.98362
vt 20.98362 0
vt 17.32606 0
vt 17.32606 4
vt 20.98362 4
vt -17.32606 0
vt -20.98362 0
vt -20.98362 4
vt -17.32606 4
vt 1.135132 20.98362
vt 30 20.98362
vt 30 17.32606
vt 1.135132 17.32606
vn 0 0 1
vn 0 0 1
vn 0 0 1
vn 0 0 1
vn 6.607855E-08 0 -1
vn 6.607855E-08 0 -1
vn 6.607855E-08 0 -1
vn 6.607855E-08 0 -1
vn 0 -1 0
vn 0 -1 0
vn 0 -1 0
vn 0 -1 0
vn -1 0 0
vn -1 0 0
vn -1 0 0
vn -1 0 0
vn 1 0 0
vn 1 0 0
vn 1 0 0
vn 1 0 0
vn 0 1 0
vn 0 1 0
vn 0 1 0
vn 0 1 0
vn 0 0 1
vn 0 0 1
vn 0 0 1
vn 0 0 1
vn -1 0 0
vn -1 0 0
vn -1 0 0
vn -1 0 0
vn 1.590841E-08 0 -1
vn 1.590841E-08 0 -1
vn 1.590841E-08 0 -1
vn 1.590841E-08 0 -1
vn 0 -1 0
vn 0 -1 0
vn 0 -1 0
vn 0 -1 0
vn 1 0 0
vn 1 0 0
vn 1 0 0
vn 1 0 0
vn 0 1 0
vn 0 1 0
vn 0 1 0
vn 0 1 0
vn -1 0 0
vn -1 0 0
vn -1 0 0
vn -1 0 0
vn 0 0 -1
vn 0 0 -1
vn 0 0 -1
vn 0 0 -1
vn 1 0 0
vn 1 0 0
vn 1 0 0
vn 1 0 0
vn 0 -1 0
vn 0 -1 0
vn 0 -1 0
vn 0 -1 0
vn 0 0 1
vn 0 0 1
vn 0 0 1
vn 0 0 1
vn 0 1 0
vn 0 1 0
vn 0 1 0
vn 0 1 0
vn 0 0 1
vn 0 0 1
vn 0 0 1
vn 0 0 1
vn -1 0 0
vn -1 0 0
vn -1 0 0
vn -1 0 0
vn 0 0 -1
vn 0 0 -1
vn 0 0 -1
vn 0 0 -1
vn 1 0 0
vn 1 0 0
vn 1 0 0
vn 1 0 0
vn 0 1 0
vn 0 1 0
vn 0 1 0
vn 0 1 0
vn 0 1 0
vn 0 1 0
vn 0 1 0
vn 0 1 0
vn 0 -1 0
vn 0 -1 0
vn 0 -1 0
vn 0 -1 0
vn 0 0 -1
vn 0 0 -1
vn 0 0 -1
vn 0 0 -1
vn 1 0 0
vn 1 0 0
vn 1 0 0
vn 1 0 0
vn 0 0 1
vn 0 0 1
vn 0 0 1
vn 0 0 1
vn -1 0 0
vn -1 0 0
vn -1 0 0
vn -1 0 0
vn 0 1 0
vn 0 1 0
vn 0 1 0
vn 0 1 0
vn 0 0 -1
vn 0 0 -1
vn 0 0 -1
vn 0 0 -1
vn 1 0 2.148105E-07
vn 1 0 2.148105E-07
vn 1 0 2.148105E-07
vn 1 0 2.148105E-07
vn 0 0 1
vn 0 0 1
vn 0 0 1
vn 0 0 1
vn 0 -1 0
vn 0 -1 0
vn 0 -1 0
vn 0 -1 0
vn -1 0 -2.148105E-07
vn -1 0 -2.148105E-07
vn -1 0 -2.148105E-07
vn -1 0 -2.148105E-07
vn 0 1 0
vn 0 1 0
vn 0 1 0
vn 0 1 0
vn 0 0 1
vn 0 0 1
vn 0 0 1
vn 0 0 1
vn 0 0 -1
vn 0 0 -1
vn 0 0 -1
vn 0 0 -1
vn 0 -1 0
vn 0 -1 0
vn 0 -1 0
vn 0 -1 0
vn -1 0 0
vn -1 0 0
vn -1 0 0
vn -1 0 0
vn 1 0 0
vn 1 0 0
vn 1 0 0
vn 1 0 0
vn 0 1 0
vn 0 1 0
vn 0 1 0
vn 0 1 0
g Level8_0
f 3/3/3 2/2/2 1/1/1
f 4/4/4 3/3/3 1/1/1
f 7/7/7 6/6/6 5/5/5
f 8/8/8 7/7/7 5/5/5
f 11/11/11 10/10/10 9/9/9
f 12/12/12 11/11/11 9/9/9
f 15/15/15 14/14/14 13/13/13
f 16/16/16 15/15/15 13/13/13
f 19/19/19 18/18/18 17/17/17
f 20/20/20 19/19/19 17/17/17
f 23/23/23 22/22/22 21/21/21
f 24/24/24 23/23/23 21/21/21
f 27/27/27 26/26/26 25/25/25
f 28/28/28 27/27/27 25/25/25
f 31/31/31 30/30/30 29/29/29
f 32/32/32 31/31/31 29/29/29
f 35/35/35 34/34/34 33/33/33
f 36/36/36 35/35/35 33/33/33
f 39/39/39 38/38/38 37/37/37
f 40/40/40 39/39/39 37/37/37
f 43/43/43 42/42/42 41/41/41
f 44/44/44 43/43/43 41/41/41
f 47/47/47 46/46/46 45/45/45
f 48/48/48 47/47/47 45/45/45
f 51/51/51 50/50/50 49/49/49
f 52/52/52 51/51/51 49/49/49
f 55/55/55 54/54/54 53/53/53
f 56/56/56 55/55/55 53/53/53
f 59/59/59 58/58/58 57/57/57
f 60/60/60 59/59/59 57/57/57
f 63/63/63 62/62/62 61/61/61
f 64/64/64 63/63/63 61/61/61
f 67/67/67 66/66/66 65/65/65
f 68/68/68 67/67/67 65/65/65
f 71/71/71 70/70/70 69/69/69
f 72/72/72 71/71/71 69/69/69
f 75/75/75 74/74/74 73/73/73
f 76/76/76 75/75/75 73/73/73
f 79/79/79 78/78/78 77/77/77
f 80/80/80 79/79/79 77/77/77
f 83/83/83 82/82/82 81/81/81
f 84/84/84 83/83/83 81/81/81
f 87/87/87 86/86/86 85/85/85
f 88/88/88 87/87/87 85/85/85
f 93/93/93 90/90/90 94/94/94
f 94/94/94 90/90/90 89/89/89
f 94/94/94 89/89/89 95/95/95
f 95/95/95 89/89/89 92/92/92
f 90/90/90 93/93/93 91/91/91
f 91/91/91 93/93/93 96/96/96
f 91/91/91 96/96/96 95/95/95
f 91/91/91 95/95/95 92/92/92
f 99/99/99 98/98/98 97/97/97
f 100/100/100 99/99/99 97/97/97
f 103/103/103 102/102/102 101/101/101
f 104/104/104 103/103/103 101/101/101
f 107/107/107 106/106/106 105/105/105
f 108/108/108 107/107/107 105/105/105
f 111/111/111 110/110/110 109/109/109
f 112/112/112 111/111/111 109/109/109
f 115/115/115 114/114/114 113/113/113
f 116/116/116 115/115/115 113/113/113
f 119/119/119 118/118/118 117/117/117
f 120/120/120 119/119/119 117/117/117
f 123/123/123 122/122/122 121/121/121
f 124/124/124 123/123/123 121/121/121
f 127/127/127 126/126/126 125/125/125
f 128/128/128 127/127/127 125/125/125
f 131/131/131 130/130/130 129/129/129
f 132/132/132 131/131/131 129/129/129
f 135/135/135 134/134/134 133/133/133
f 136/136/136 135/135/135 133/133/133
f 139/139/139 138/138/138 137/137/137
f 140/140/140 139/139/139 137/137/137
f 143/143/143 142/142/142 141/141/141
f 144/144/144 143/143/143 141/141/141
f 147/147/147 146/146/146 145/145/145
f 148/148/148 147/147/147 145/145/145
f 151/151/151 150/150/150 149/149/149
f 152/152/152 151/151/151 149/149/149
f 155/155/155 154/154/154 153/153/153
f 156/156/156 155/155/155 153/153/153
f 159/159/159 158/158/158 157/157/157
f 160/160/160 159/159/159 157/157/157
f 163/163/163 162/162/162 161/161/161
f 164/164/164 163/163/163 161/161/161
f 167/167/167 166/166/166 165/165/165
f 168/168/168 167/167/167 165/165/165
