g Ramp_4x2x1
v -2 0 0
v -2 0 0.9999999
v -2 -4 0
v 2 0 0
v 2 -4 0
v 2 0 0.9999999
v -2 0 0.9999999
v -2 0 0
v 2 0 0
v 2 0 0.9999999
v 2 0 0
v -2 0 0
v -2 -4 0
v 2 -4 0
v 2 0 0.9999999
v 2 -4 0
v -2 -4 0
v -2 0 0.9999999
vt 7.069111E-05 3.76899E-05
vt 7.069111E-05 0.2500024
vt 0.9999292 3.76303E-05
vt 0.9999501 6.26253E-05
vt 4.999E-05 6.263275E-05
vt 0.9999501 0.2500126
vt 0.9998329 0.2500126
vt 0.9998328 6.261954E-05
vt 3.28828E-05 6.264934E-05
vt 3.28828E-05 0.2500127
vt 0.9999293 0.9999248
vt 0.9999293 6.614078E-05
vt 7.070068E-05 6.614078E-05
vt 7.070068E-05 0.9999248
vt 1.002169 7.502099E-05
vt 6.701458E-05 7.526059E-05
vt 6.712143E-05 1.005069
vt 1.002169 1.005068
vn -1 0 0
vn -1 0 0
vn -1 0 0
vn 1 0 0
vn 1 0 0
vn 1 0 0
vn 0 1 0
vn 0 1 0
vn 0 1 0
vn 0 1 0
vn 0 0 -1
vn 0 0 -1
vn 0 0 -1
vn 0 0 -1
vn 0 -0.2425356 0.9701425
vn 0 -0.2425356 0.9701425
vn 0 -0.2425356 0.9701425
vn 0 -0.2425356 0.9701425
g Ramp_4x2x1_0
f 3/3/3 2/2/2 1/1/1
f 6/6/6 5/5/5 4/4/4
f 9/9/9 8/8/8 7/7/7
f 10/10/10 9/9/9 7/7/7
f 13/13/13 12/12/12 11/11/11
f 14/14/14 13/13/13 11/11/11
f 17/17/17 16/16/16 15/15/15
f 18/18/18 17/17/17 15/15/15
