g Scott
v 0.5 0 -0.5
v 0.5 0.9999999 -0.5
v -0.5 0.9999999 -0.5
v -0.5 0 -0.5
v -0.4 0.6 0.5
v -0.5 0.3 0.5
v -0.5 0.6 0.5
v -0.09999999 0.6 0.5
v -0.09999999 0.3 0.5
v -0.4 0.6 0.4
v -0.4 0.9 0.4
v -0.09999999 0.9 0.4
v -0.09999999 0.6 0.4
v 0.4 0.6 0.5
v 0.09999999 0.3 0.5
v 0.09999999 0.6 0.5
v 0.5 0.6 0.5
v 0.5 0.3 0.5
v 0.09999999 0.6 0.4
v 0.09999999 0.9 0.4
v 0.4 0.9 0.4
v 0.4 0.6 0.4
v -0.09999999 0.3 0.4
v -0.09999999 0.6 0.4
v 0.09999999 0.6 0.4
v 0.09999999 0.3 0.4
v -0.09999999 0.6 0.5
v -0.09999999 0.9 0.5
v 0.09999999 0.9 0.5
v 0.09999999 0.6 0.5
v -0.5 0.6 0.5
v -0.5 0.9 0.5
v -0.4 0.9 0.5
v -0.4 0.6 0.5
v 0.4 0.6 0.5
v 0.4 0.9 0.5
v 0.5 0.9 0.5
v 0.5 0.6 0.5
v -0.4 0 0.4
v -0.4 0.2 0.4
v 0.4 0.2 0.4
v 0.4 0 0.4
v -0.5 0 0.5
v -0.5 0.2 0.5
v -0.4 0.2 0.5
v -0.4 0 0.5
v 0.4 0 0.5
v 0.4 0.2 0.5
v 0.5 0.2 0.5
v 0.5 0 0.5
v -0.09999999 0.3 0.5
v -0.5 0.2 0.5
v -0.5 0.3 0.5
v 0.09999999 0.3 0.5
v -0.4 0.2 0.5
v 0.5 0.3 0.5
v 0.4 0.2 0.5
v 0.5 0.2 0.5
v 0.5 0.9999999 0.5
v -0.5 0.9 0.5
v -0.5 0.9999999 0.5
v 0.5 0.9 0.5
v -0.4 0.9 0.5
v 0.4 0.9 0.5
v -0.09999999 0.9 0.5
v 0.09999999 0.9 0.5
v -0.5 0.9999999 0.5
v -0.5 0 -0.5
v -0.5 0.9999999 -0.5
v -0.5 0.9 0.5
v -0.5 0 0.4
v -0.5 0.6 0.5
v -0.5 0 0.5
v -0.5 0.3 0.5
v -0.5 0.2 0.5
v -0.09999999 0.6 0.4
v -0.09999999 0.9 0.4
v -0.09999999 0.9 0.5
v -0.09999999 0.6 0.5
v 0.09999999 0.3 0.4
v 0.09999999 0.6 0.4
v 0.09999999 0.6 0.5
v 0.09999999 0.3 0.5
v 0.4 0.6 0.4
v 0.4 0.9 0.4
v 0.4 0.9 0.5
v 0.4 0.6 0.5
v 0.4 0 0.4
v 0.4 0.2 0.4
v 0.4 0.2 0.5
v 0.4 0 0.5
v 0.5 0.9999999 -0.5
v 0.5 0.9 0.5
v 0.5 0.9999999 0.5
v 0.5 0 -0.5
v 0.5 0.6 0.5
v 0.5 0 0.4
v 0.5 0.3 0.5
v 0.5 0 0.5
v 0.5 0.2 0.5
v -0.4 0.6 0.5
v -0.4 0.9 0.5
v -0.4 0.9 0.4
v -0.4 0.6 0.4
v -0.09999999 0.3 0.5
v -0.09999999 0.6 0.5
v -0.09999999 0.6 0.4
v -0.09999999 0.3 0.4
v 0.09999999 0.6 0.5
v 0.09999999 0.9 0.5
v 0.09999999 0.9 0.4
v 0.09999999 0.6 0.4
v -0.4 0 0.5
v -0.4 0.2 0.5
v -0.4 0.2 0.4
v -0.4 0 0.4
v -0.5 0.9999999 -0.5
v 0.5 0.9999999 -0.5
v -0.5 0.9999999 0.5
v 0.5 0.9999999 0.5
v -0.4 0.6 0.4
v -0.09999999 0.6 0.4
v -0.4 0.6 0.5
v -0.09999999 0.6 0.5
v 0.09999999 0.6 0.4
v 0.4 0.6 0.4
v 0.09999999 0.6 0.5
v 0.4 0.6 0.5
v -0.09999999 0.3 0.4
v 0.09999999 0.3 0.4
v -0.09999999 0.3 0.5
v 0.09999999 0.3 0.5
v -0.4 0 0.4
v -0.5 0 -0.5
v -0.5 0 0.4
v 0.5 0 -0.5
v 0.4 0 0.4
v 0.5 0 0.4
v -0.4 0.2 0.5
v 0.4 0.2 0.5
v -0.4 0.2 0.4
v 0.4 0.2 0.4
v -0.4 0.9 0.5
v -0.09999999 0.9 0.5
v -0.4 0.9 0.4
v -0.09999999 0.9 0.4
v 0.09999999 0.9 0.5
v 0.4 0.9 0.5
v 0.09999999 0.9 0.4
v 0.4 0.9 0.4
v -0.09999999 0.6 0.5
v 0.09999999 0.6 0.5
v -0.09999999 0.6 0.4
v 0.09999999 0.6 0.4
v -0.5 0 0.5
v -0.4 0 0.5
v -0.5 0 0.4
v -0.4 0 0.4
v 0.4 0 0.5
v 0.5 0 0.5
v 0.4 0 0.4
v 0.5 0 0.4
vt 0.390625 0.03125
vt 0.390625 0.34375
vt 0.546875 0.34375
vt 0.546875 0.03125
vt 0.125 0.5
vt 0.109375 0.40625
vt 0.109375 0.5
vt 0.171875 0.5
vt 0.171875 0.40625
vt 0.28125 0.40625
vt 0.28125 0.5
vt 0.328125 0.5
vt 0.328125 0.40625
vt 0.0625 0.5
vt 0.015625 0.40625
vt 0.015625 0.5
vt 0.078125 0.5
vt 0.078125 0.40625
vt 0.203125 0.40625
vt 0.203125 0.5
vt 0.25 0.5
vt 0.25 0.40625
vt 0.953125 0.03125
vt 0.953125 0.125
vt 0.984375 0.125
vt 0.984375 0.03125
vt 0.953125 0.1875
vt 0.953125 0.28125
vt 0.984375 0.28125
vt 0.984375 0.1875
vt 0.453125 0.40625
vt 0.453125 0.5
vt 0.46875 0.5
vt 0.46875 0.40625
vt 0.5 0.40625
vt 0.5 0.5
vt 0.515625 0.5
vt 0.515625 0.40625
vt 0.734375 0.40625
vt 0.734375 0.46875
vt 0.859375 0.46875
vt 0.859375 0.40625
vt 0.9375 0.40625
vt 0.9375 0.46875
vt 0.953125 0.46875
vt 0.953125 0.40625
vt 0.890625 0.40625
vt 0.890625 0.46875
vt 0.90625 0.46875
vt 0.90625 0.40625
vt 0.171875 0.59375
vt 0.109375 0.5625
vt 0.109375 0.59375
vt 0.203125 0.59375
vt 0.125 0.5625
vt 0.265625 0.59375
vt 0.25 0.5625
vt 0.265625 0.5625
vt 0.453125 0.59375
vt 0.296875 0.5625
vt 0.296875 0.59375
vt 0.453125 0.5625
vt 0.3125 0.5625
vt 0.4375 0.5625
vt 0.359375 0.5625
vt 0.390625 0.5625
vt 0.734375 0.34375
vt 0.578125 0.03125
vt 0.578125 0.34375
vt 0.734375 0.3125
vt 0.71875 0.03125
vt 0.734375 0.21875
vt 0.734375 0.03125
vt 0.734375 0.125
vt 0.734375 0.09375
vt 0.546875 0.40625
vt 0.546875 0.5
vt 0.5625 0.5
vt 0.5625 0.40625
vt 0.359375 0.40625
vt 0.359375 0.5
vt 0.375 0.5
vt 0.375 0.40625
vt 0.40625 0.40625
vt 0.40625 0.5
vt 0.421875 0.5
vt 0.421875 0.40625
vt 0.015625 0.5625
vt 0.015625 0.625
vt 0.03125 0.625
vt 0.03125 0.5625
vt 0.359375 0.34375
vt 0.203125 0.3125
vt 0.203125 0.34375
vt 0.359375 0.03125
vt 0.203125 0.21875
vt 0.21875 0.03125
vt 0.203125 0.125
vt 0.203125 0.03125
vt 0.203125 0.09375
vt 0.6875 0.40625
vt 0.6875 0.5
vt 0.703125 0.5
vt 0.703125 0.40625
vt 0.59375 0.40625
vt 0.59375 0.5
vt 0.609375 0.5
vt 0.609375 0.40625
vt 0.640625 0.40625
vt 0.640625 0.5
vt 0.65625 0.5
vt 0.65625 0.40625
vt 0.0625 0.5625
vt 0.0625 0.625
vt 0.078125 0.625
vt 0.078125 0.5625
vt 0.015625 0.34375
vt 0.171875 0.34375
vt 0.015625 0.03125
vt 0.171875 0.03125
vt 0.796875 0.59375
vt 0.84375 0.59375
vt 0.796875 0.5625
vt 0.84375 0.5625
vt 0.875 0.59375
vt 0.921875 0.59375
vt 0.875 0.5625
vt 0.921875 0.5625
vt 0.015625 0.71875
vt 0.046875 0.71875
vt 0.015625 0.6875
vt 0.046875 0.6875
vt 0.78125 0.3125
vt 0.765625 0.03125
vt 0.765625 0.3125
vt 0.921875 0.03125
vt 0.90625 0.3125
vt 0.921875 0.3125
vt 0.484375 0.59375
vt 0.609375 0.59375
vt 0.484375 0.5625
vt 0.609375 0.5625
vt 0.640625 0.59375
vt 0.6875 0.59375
vt 0.640625 0.5625
vt 0.6875 0.5625
vt 0.71875 0.59375
vt 0.765625 0.59375
vt 0.71875 0.5625
vt 0.765625 0.5625
vt 0.953125 0.59375
vt 0.984375 0.59375
vt 0.953125 0.5625
vt 0.984375 0.5625
vt 0.125 0.71875
vt 0.140625 0.71875
vt 0.125 0.6875
vt 0.140625 0.6875
vt 0.078125 0.71875
vt 0.09375 0.71875
vt 0.078125 0.6875
vt 0.09375 0.6875
vn 0 0 -1
vn 0 0 -1
vn 0 0 -1
vn 0 0 -1
vn 0 0 1
vn 0 0 1
vn 0 0 1
vn 0 0 1
vn 0 0 1
vn 0 0 1
vn 0 0 1
vn 0 0 1
vn 0 0 1
vn 0 0 1
vn 0 0 1
vn 0 0 1
vn 0 0 1
vn 0 0 1
vn 0 0 1
vn 0 0 1
vn 0 0 1
vn 0 0 1
vn 0 0 1
vn 0 0 1
vn 0 0 1
vn 0 0 1
vn 0 0 1
vn 0 0 1
vn 0 0 1
vn 0 0 1
vn 0 0 1
vn 0 0 1
vn 0 0 1
vn 0 0 1
vn 0 0 1
vn 0 0 1
vn 0 0 1
vn 0 0 1
vn 0 0 1
vn 0 0 1
vn 0 0 1
vn 0 0 1
vn 0 0 1
vn 0 0 1
vn 0 0 1
vn 0 0 1
vn 0 0 1
vn 0 0 1
vn 0 0 1
vn 0 0 1
vn 0 0 1
vn 0 0 1
vn 0 0 1
vn 0 0 1
vn 0 0 1
vn 0 0 1
vn 0 0 1
vn 0 0 1
vn 0 0 1
vn 0 0 1
vn 0 0 1
vn 0 0 1
vn 0 0 1
vn 0 0 1
vn 0 0 1
vn 0 0 1
vn -1 0 0
vn -1 0 0
vn -1 0 0
vn -1 0 0
vn -1 0 0
vn -1 0 0
vn -1 0 0
vn -1 0 0
vn -1 0 0
vn -1 0 0
vn -1 0 0
vn -1 0 0
vn -1 0 0
vn -1 0 0
vn -1 0 0
vn -1 0 0
vn -1 0 0
vn -1 0 0
vn -1 0 0
vn -1 0 0
vn -1 0 0
vn -1 0 0
vn -1 0 0
vn -1 0 0
vn -1 0 0
vn 1 0 0
vn 1 0 0
vn 1 0 0
vn 1 0 0
vn 1 0 0
vn 1 0 0
vn 1 0 0
vn 1 0 0
vn 1 0 0
vn 1 0 0
vn 1 0 0
vn 1 0 0
vn 1 0 0
vn 1 0 0
vn 1 0 0
vn 1 0 0
vn 1 0 0
vn 1 0 0
vn 1 0 0
vn 1 0 0
vn 1 0 0
vn 1 0 0
vn 1 0 0
vn 1 0 0
vn 1 0 0
vn 0 1 0
vn 0 1 0
vn 0 1 0
vn 0 1 0
vn 0 1 0
vn 0 1 0
vn 0 1 0
vn 0 1 0
vn 0 1 0
vn 0 1 0
vn 0 1 0
vn 0 1 0
vn 0 1 0
vn 0 1 0
vn 0 1 0
vn 0 1 0
vn 0 -1 0
vn 0 -1 0
vn 0 -1 0
vn 0 -1 0
vn 0 -1 0
vn 0 -1 0
vn 0 -1 0
vn 0 -1 0
vn 0 -1 0
vn 0 -1 0
vn 0 -1 0
vn 0 -1 0
vn 0 -1 0
vn 0 -1 0
vn 0 -1 0
vn 0 -1 0
vn 0 -1 0
vn 0 -1 0
vn 0 -1 0
vn 0 -1 0
vn 0 -1 0
vn 0 -1 0
vn 0 -1 0
vn 0 -1 0
vn 0 -1 0
vn 0 -1 0
vn 0 -1 0
vn 0 -1 0
vn 0 -1 0
vn 0 -1 0
g Scott_0
f 3/3/3 2/2/2 1/1/1
f 4/4/4 3/3/3 1/1/1
f 7/7/7 6/6/6 5/5/5
f 8/8/8 5/5/5 6/6/6
f 6/6/6 9/9/9 8/8/8
f 12/12/12 11/11/11 10/10/10
f 13/13/13 12/12/12 10/10/10
f 16/16/16 15/15/15 14/14/14
f 17/17/17 14/14/14 15/15/15
f 15/15/15 18/18/18 17/17/17
f 21/21/21 20/20/20 19/19/19
f 22/22/22 21/21/21 19/19/19
f 25/25/25 24/24/24 23/23/23
f 26/26/26 25/25/25 23/23/23
f 29/29/29 28/28/28 27/27/27
f 30/30/30 29/29/29 27/27/27
f 33/33/33 32/32/32 31/31/31
f 34/34/34 33/33/33 31/31/31
f 37/37/37 36/36/36 35/35/35
f 38/38/38 37/37/37 35/35/35
f 41/41/41 40/40/40 39/39/39
f 42/42/42 41/41/41 39/39/39
f 45/45/45 44/44/44 43/43/43
f 46/46/46 45/45/45 43/43/43
f 49/49/49 48/48/48 47/47/47
f 50/50/50 49/49/49 47/47/47
f 53/53/53 52/52/52 51/51/51
f 54/54/54 51/51/51 52/52/52
f 52/52/52 55/55/55 54/54/54
f 56/56/56 54/54/54 55/55/55
f 55/55/55 57/57/57 56/56/56
f 58/58/58 56/56/56 57/57/57
f 61/61/61 60/60/60 59/59/59
f 62/62/62 59/59/59 60/60/60
f 60/60/60 63/63/63 62/62/62
f 64/64/64 62/62/62 63/63/63
f 63/63/63 65/65/65 64/64/64
f 66/66/66 64/64/64 65/65/65
f 69/69/69 68/68/68 67/67/67
f 70/70/70 67/67/67 68/68/68
f 68/68/68 71/71/71 70/70/70
f 72/72/72 70/70/70 71/71/71
f 71/71/71 73/73/73 72/72/72
f 74/74/74 72/72/72 73/73/73
f 73/73/73 75/75/75 74/74/74
f 78/78/78 77/77/77 76/76/76
f 79/79/79 78/78/78 76/76/76
f 82/82/82 81/81/81 80/80/80
f 83/83/83 82/82/82 80/80/80
f 86/86/86 85/85/85 84/84/84
f 87/87/87 86/86/86 84/84/84
f 90/90/90 89/89/89 88/88/88
f 91/91/91 90/90/90 88/88/88
f 94/94/94 93/93/93 92/92/92
f 95/95/95 92/92/92 93/93/93
f 93/93/93 96/96/96 95/95/95
f 97/97/97 95/95/95 96/96/96
f 96/96/96 98/98/98 97/97/97
f 99/99/99 97/97/97 98/98/98
f 98/98/98 100/100/100 99/99/99
f 103/103/103 102/102/102 101/101/101
f 104/104/104 103/103/103 101/101/101
f 107/107/107 106/106/106 105/105/105
f 108/108/108 107/107/107 105/105/105
f 111/111/111 110/110/110 109/109/109
f 112/112/112 111/111/111 109/109/109
f 115/115/115 114/114/114 113/113/113
f 116/116/116 115/115/115 113/113/113
f 119/119/119 118/118/118 117/117/117
f 120/120/120 118/118/118 119/119/119
f 123/123/123 122/122/122 121/121/121
f 124/124/124 122/122/122 123/123/123
f 127/127/127 126/126/126 125/125/125
f 128/128/128 126/126/126 127/127/127
f 131/131/131 130/130/130 129/129/129
f 132/132/132 130/130/130 131/131/131
f 135/135/135 134/134/134 133/133/133
f 136/136/136 133/133/133 134/134/134
f 133/133/133 136/136/136 137/137/137
f 138/138/138 137/137/137 136/136/136
f 141/141/141 140/140/140 139/139/139
f 142/142/142 140/140/140 141/141/141
f 145/145/145 144/144/144 143/143/143
f 146/146/146 144/144/144 145/145/145
f 149/149/149 148/148/148 147/147/147
f 150/150/150 148/148/148 149/149/149
f 153/153/153 152/152/152 151/151/151
f 154/154/154 152/152/152 153/153/153
f 157/157/157 156/156/156 155/155/155
f 158/158/158 156/156/156 157/157/157
f 161/161/161 160/160/160 159/159/159
f 162/162/162 160/160/160 161/161/161
