g SM_Prop_CardboardBox_05
v 0.1635272 1.563194E-15 -0.2568919
v 0.1635272 0.3165588 -0.2568919
v 0.05143188 0.3165588 -0.2567229
v 0.05143188 0.1714137 -0.2567229
v -0.04180359 0.1714137 -0.2565845
v -0.1642987 1.563194E-15 -0.2563991
v -0.1642987 0.3165588 -0.2563991
v -0.04180359 0.3165588 -0.2565845
v -0.04103149 0.3165588 0.2567096
v -0.04180359 0.3165588 -0.2565845
v 0.05143188 0.3165588 -0.2567229
v 0.05220306 0.3165588 0.2565672
v -0.1635278 1.563194E-15 0.2568915
v -0.1635278 0.3165588 0.2568915
v -0.04103149 0.3165588 0.2567096
v -0.04103149 0.1433643 0.2567096
v 0.1642981 1.563194E-15 0.2563985
v 0.05220306 0.1433644 0.2565672
v 0.1642981 0.3165588 0.2563985
v 0.05220306 0.3165588 0.2565672
v 0.1642981 1.563194E-15 0.2563985
v 0.1635272 1.563194E-15 -0.2568919
v -0.1642987 1.563194E-15 -0.2563991
v -0.1635278 1.563194E-15 0.2568915
v -0.1641022 0.1067467 -0.1255827
v -0.1639758 0.1067467 -0.04130859
v -0.1639758 0.02062191 -0.04130859
v -0.1641022 0.02062191 -0.1255827
v 0.1642444 0.0256757 0.2206104
v 0.1642444 0.1086335 0.2206104
v 0.164115 0.1086335 0.134671
v 0.164115 0.0256757 0.134671
v 0.05143188 0.3165588 -0.2567229
v -0.04180359 0.3165588 -0.2565845
v -0.04180359 0.1714137 -0.2565845
v 0.05143188 0.1714137 -0.2567229
v -0.04103149 0.3165588 0.2567096
v -0.1635278 0.3165588 0.2568915
v -0.1642987 0.3165588 -0.2563991
v -0.04180359 0.3165588 -0.2565845
v -0.04103149 0.3165588 0.2567096
v 0.05220306 0.3165588 0.2565672
v 0.05220306 0.1433644 0.2565672
v -0.04103149 0.1433643 0.2567096
v 0.05143188 0.3165588 -0.2567229
v 0.1635272 0.3165588 -0.2568919
v 0.1642981 0.3165588 0.2563985
v 0.05220306 0.3165588 0.2565672
v -0.1642459 0.02062191 -0.2220332
v -0.1641022 0.02062191 -0.1255827
v -0.1639758 0.02062191 -0.04130859
v -0.164126 0.02062191 -0.1416572
v -0.1642459 0.02062191 -0.2220332
v -0.1642459 0.1067467 -0.2220332
v -0.164126 0.1067467 -0.1416572
v -0.164126 0.02062191 -0.1416572
v -0.164126 0.1067467 -0.1416572
v -0.1641022 0.02062191 -0.1255827
v -0.164126 0.02062191 -0.1416572
v -0.1641022 0.1067467 -0.1255827
v -0.1635278 0.3165588 0.2568915
v -0.1639758 0.1067467 -0.04130859
v -0.1642459 0.1067467 -0.2220332
v -0.1635278 1.563194E-15 0.2568915
v -0.1642987 0.3165588 -0.2563991
v -0.1639758 0.02062191 -0.04130859
v -0.1642459 0.02062191 -0.2220332
v -0.1642987 1.563194E-15 -0.2563991
v 0.1635272 1.563194E-15 -0.2568919
v 0.164115 0.1086335 0.134671
v 0.1635272 0.3165588 -0.2568919
v 0.1642981 0.3165588 0.2563985
v 0.164115 0.0256757 0.134671
v 0.1642444 0.1086335 0.2206104
v 0.1642981 1.563194E-15 0.2563985
v 0.1642444 0.0256757 0.2206104
vt 0.04898324 0.327587
vt 0.04900249 0.3273278
vt 0.04892498 0.3273548
vt 0.04891741 0.3274785
vt 0.04885175 0.3275034
vt 0.04875717 0.327681
vt 0.0487664 0.32741
vt 0.04885801 0.3273782
vt 0.04750872 0.3525346
vt 0.04832357 0.3521082
vt 0.0481475 0.3520551
vt 0.04732352 0.3524284
vt 0.04847559 0.3274958
vt 0.04847136 0.3272483
vt 0.04855853 0.3272233
vt 0.04855883 0.3273592
vt 0.04869196 0.3274212
vt 0.04862139 0.3273392
vt 0.04869696 0.3271836
vt 0.04862255 0.327205
vt 0.04869196 0.3274212
vt 0.04898324 0.327587
vt 0.04875717 0.327681
vt 0.04847559 0.3274958
vt 0.08111864 0.2818464
vt 0.08082038 0.2816541
vt 0.0808171 0.2821786
vt 0.08111015 0.2823897
vt 0.08094642 0.2820689
vt 0.08098039 0.2813028
vt 0.08014965 0.2815289
vt 0.08013141 0.2823028
vt 0.0481475 0.3520551
vt 0.04832357 0.3521082
vt 0.0482648 0.3523855
vt 0.04810417 0.3523224
vt 0.04855853 0.3272233
vt 0.04847136 0.3272483
vt 0.0487664 0.32741
vt 0.04885801 0.3273782
vt 0.04750872 0.3525346
vt 0.04732352 0.3524284
vt 0.04734766 0.3528121
vt 0.04751211 0.3529327
vt 0.04892498 0.3273548
vt 0.04900249 0.3273278
vt 0.04869696 0.3271836
vt 0.04862255 0.327205
vt 0.04873663 0.3276503
vt 0.04867923 0.327613
vt 0.04863119 0.3275817
vt 0.04868862 0.3276191
vt 0.08147731 0.2826541
vt 0.0814929 0.2820877
vt 0.08117846 0.281885
vt 0.08116886 0.282432
vt 0.04869011 0.3275489
vt 0.04867923 0.327613
vt 0.04868862 0.3276191
vt 0.0486806 0.327543
vt 0.04847136 0.3272483
vt 0.04863191 0.3275127
vt 0.04873878 0.3275792
vt 0.04847559 0.3274958
vt 0.0487664 0.32741
vt 0.04863119 0.3275817
vt 0.04873663 0.3276503
vt 0.04875717 0.327681
vt 0.04898324 0.327587
vt 0.04875794 0.3273764
vt 0.04900249 0.3273278
vt 0.04869696 0.3271836
vt 0.04875591 0.3274384
vt 0.04871219 0.3273518
vt 0.04869196 0.3274212
vt 0.0487107 0.327413
vn -0.00150187 0 -0.9999989
vn -0.001508245 0 -0.9999989
vn -0.001500051 0 -0.9999989
vn -0.001500924 0 -0.9999989
vn -0.001503297 0 -0.9999989
vn -0.001504034 0 -0.9999989
vn -0.001513481 0 -0.9999989
vn -0.001504063 0 -0.9999989
vn 0 1 0
vn 0 1 0
vn 0 1 0
vn 0 1 0
vn 0.001498145 0 0.9999989
vn 0.001484816 0 0.9999989
vn 0.00149956 0 0.9999989
vn 0.001501153 0 0.9999989
vn 0.001507605 0 0.9999989
vn 0.001510357 0 0.9999989
vn 0.001505526 0 0.9999989
vn 0.001513461 0 0.9999989
vn 0 -1 0
vn 0 -1 0
vn 0 -1 0
vn 0 -1 0
vn -0.9999989 0 0.001493772
vn -0.9999989 0 0.001501693
vn -0.9999989 0 0.001501978
vn -0.9999989 0 0.001496246
vn 0.9999989 0 -0.001502634
vn 0.9999989 0 -0.001502398
vn 0.9999989 0 -0.001501866
vn 0.9999989 0 -0.001501583
vn -0.001500051 0 -0.9999989
vn -0.001504063 0 -0.9999989
vn -0.001503297 0 -0.9999989
vn -0.001500924 0 -0.9999989
vn 0 1 0
vn 0 1 0
vn 0 1 0
vn 0 1 0
vn 0.00149956 0 0.9999989
vn 0.001513461 0 0.9999989
vn 0.001510357 0 0.9999989
vn 0.001501153 0 0.9999989
vn 0 1 0
vn 0 1 0
vn 0 1 0
vn 0 1 0
vn 0 1 0
vn 0 1 0
vn 0 1 0
vn 0 1 0
vn -0.9999989 1.114436E-05 0.001513771
vn -0.9999989 0 0.001507214
vn -0.9999989 1.099639E-05 0.001491227
vn -0.9999989 0 0.001490274
vn -0.9999989 1.099639E-05 0.001491227
vn -0.9999989 0 0.001496246
vn -0.9999989 0 0.001490274
vn -0.9999989 0 0.001493772
vn -0.9999989 0 0.001502077
vn -0.9999989 0 0.001501693
vn -0.9999989 0 0.001507214
vn -0.9999989 0 0.001502337
vn -0.9999989 0 0.001502329
vn -0.9999989 0 0.001501978
vn -0.9999989 1.114436E-05 0.001513771
vn -0.9999988 0 0.001530117
vn 0.9999989 0 -0.001501087
vn 0.9999989 0 -0.001501866
vn 0.9999989 0 -0.001501423
vn 0.9999989 0 -0.001502353
vn 0.9999989 0 -0.001501583
vn 0.9999989 0 -0.001502398
vn 0.9999989 0 -0.001501453
vn 0.9999989 0 -0.001502634
g SM_Prop_CardboardBox_05_0
f 3/3/3 2/2/2 1/1/1
f 4/4/4 3/3/3 1/1/1
f 5/5/5 4/4/4 1/1/1
f 6/6/6 5/5/5 1/1/1
f 6/6/6 7/7/7 5/5/5
f 7/7/7 8/8/8 5/5/5
f 11/11/11 10/10/10 9/9/9
f 12/12/12 11/11/11 9/9/9
f 15/15/15 14/14/14 13/13/13
f 16/16/16 15/15/15 13/13/13
f 16/16/16 13/13/13 17/17/17
f 18/18/18 16/16/16 17/17/17
f 18/18/18 17/17/17 19/19/19
f 20/20/20 18/18/18 19/19/19
f 23/23/23 22/22/22 21/21/21
f 24/24/24 23/23/23 21/21/21
f 27/27/27 26/26/26 25/25/25
f 28/28/28 27/27/27 25/25/25
f 31/31/31 30/30/30 29/29/29
f 32/32/32 31/31/31 29/29/29
f 35/35/35 34/34/34 33/33/33
f 36/36/36 35/35/35 33/33/33
f 39/39/39 38/38/38 37/37/37
f 40/40/40 39/39/39 37/37/37
f 43/43/43 42/42/42 41/41/41
f 44/44/44 43/43/43 41/41/41
f 47/47/47 46/46/46 45/45/45
f 48/48/48 47/47/47 45/45/45
f 51/51/51 50/50/50 49/49/49
f 50/50/50 52/52/52 49/49/49
f 55/55/55 54/54/54 53/53/53
f 56/56/56 55/55/55 53/53/53
f 59/59/59 58/58/58 57/57/57
f 58/58/58 60/60/60 57/57/57
f 61/61/61 57/57/57 60/60/60
f 60/60/60 62/62/62 61/61/61
f 61/61/61 63/63/63 57/57/57
f 61/61/61 62/62/62 64/64/64
f 61/61/61 65/65/65 63/63/63
f 62/62/62 66/66/66 64/64/64
f 67/67/67 63/63/63 65/65/65
f 68/68/68 64/64/64 66/66/66
f 68/68/68 67/67/67 65/65/65
f 66/66/66 67/67/67 68/68/68
f 71/71/71 70/70/70 69/69/69
f 71/71/71 72/72/72 70/70/70
f 70/70/70 73/73/73 69/69/69
f 72/72/72 74/74/74 70/70/70
f 69/69/69 73/73/73 75/75/75
f 76/76/76 74/74/74 72/72/72
f 73/73/73 76/76/76 75/75/75
f 75/75/75 76/76/76 72/72/72
